<?xml version="1.0" encoding="UTF-8" standalone="no"?>
<!-- Generator: Gravit.io -->

<svg
   style="isolation:isolate"
   viewBox="-304.058 2350.028 3018 554.056"
   width="3018pt"
   height="554.056pt"
   version="1.1"
   id="svg22"
   sodipodi:docname="Saling-Kamay logo - yellow blue.svg"
   inkscape:version="1.3.2 (091e20e, 2023-11-25, custom)"
   xmlns:inkscape="http://www.inkscape.org/namespaces/inkscape"
   xmlns:sodipodi="http://sodipodi.sourceforge.net/DTD/sodipodi-0.dtd"
   xmlns="http://www.w3.org/2000/svg"
   xmlns:svg="http://www.w3.org/2000/svg">
  <defs
     id="defs22" />
  <sodipodi:namedview
     id="namedview22"
     pagecolor="#ffffff"
     bordercolor="#000000"
     borderopacity="0.25"
     inkscape:showpageshadow="2"
     inkscape:pageopacity="0.0"
     inkscape:pagecheckerboard="0"
     inkscape:deskcolor="#d1d1d1"
     inkscape:document-units="pt"
     inkscape:zoom="0.36409673"
     inkscape:cx="2982.7238"
     inkscape:cy="446.30997"
     inkscape:window-width="1920"
     inkscape:window-height="982"
     inkscape:window-x="-10"
     inkscape:window-y="-10"
     inkscape:window-maximized="1"
     inkscape:current-layer="g9" />
  <g
     id="g22">
    <g
       id="g10">
      <path
         d=" M 1129.494 2646.154 L 1261.881 2717.514 C 1272.569 2723.275 1277.572 2737.1 1273.046 2748.367 Q 1226.918 2863.188 1226.918 2863.188 C 1207.276 2897.374 1139.995 2919.629 1037.453 2873.197 C 934.911 2826.765 922.32 2783.265 932.163 2739.092 L 974.413 2624.438 C 980.711 2607.348 993.666 2580.937 1003.326 2565.497 L 1005.909 2561.368 C 1020.171 2539.043 1050.244 2531.899 1073.024 2545.424 L 1075.974 2547.176 C 1086.889 2553.657 1101.869 2567.211 1109.405 2577.427 L 1120.567 2592.557 C 1130.647 2606.223 1134.232 2629.085 1129.494 2646.154 Z "
         fill="rgb(255,208,12)"
         vector-effect="non-scaling-stroke"
         stroke-width="9"
         stroke="rgb(255,208,12)"
         stroke-linejoin="round"
         stroke-linecap="round"
         stroke-miterlimit="3"
         id="path1" />
      <path
         d=" M 1031.995 2351.129 C 964.995 2361.129 976.995 2450.129 1002.208 2628.038 C 965.995 2759.129 982.995 2814.129 1123.995 2843.129 C 1264.995 2872.129 1321.069 2853.197 1319.253 2776.902 C 1386.995 2705.129 1362.821 2604.681 1278.344 2578.038 C 1324.995 2506.129 1383.995 2444.129 1323.995 2403.129 C 1263.995 2362.129 1226.995 2447.129 1145.433 2530.816 L 1138.87 2529.504 C 1120.995 2399.129 1098.995 2341.129 1031.995 2351.129 Z "
         fill="rgb(43,95,113)"
         id="path2"
         style="fill:#0649bc;fill-opacity:1" />
      <clipPath
         id="_clipPath_cQ1hylDN407aBCNVookFJBGisp6JC5mu">
        <path
           d=" M 1031.995 2351.129 C 964.995 2361.129 976.995 2450.129 1002.208 2628.038 C 965.995 2759.129 982.995 2814.129 1123.995 2843.129 C 1264.995 2872.129 1321.069 2853.197 1319.253 2776.902 C 1386.995 2705.129 1362.821 2604.681 1278.344 2578.038 C 1324.995 2506.129 1383.995 2444.129 1323.995 2403.129 C 1263.995 2362.129 1226.995 2447.129 1145.433 2530.816 L 1138.87 2529.504 C 1120.995 2399.129 1098.995 2341.129 1031.995 2351.129 Z "
           fill="rgb(43,95,113)"
           id="path3" />
      </clipPath>
      <g
         clip-path="url(#_clipPath_cQ1hylDN407aBCNVookFJBGisp6JC5mu)"
         id="g9">
        <path
           d=" M 1129.494 2646.154 L 1261.881 2717.514 C 1272.569 2723.275 1277.572 2737.1 1273.046 2748.367 Q 1226.918 2863.188 1226.918 2863.188 C 1207.276 2897.374 1156.478 2913.489 1113.552 2899.152 C 1097.804 2893.893 1061.659 2881.593 1032.095 2871.342 C 1009.371 2863.462 990.536 2856.793 987.841 2855.461 C 947.268 2835.409 922.32 2783.265 932.163 2739.092 L 974.413 2624.438 C 980.711 2607.348 993.666 2580.937 1003.326 2565.497 L 1005.909 2561.368 C 1020.171 2539.043 1050.244 2531.899 1073.024 2545.424 L 1075.974 2547.176 C 1086.889 2553.657 1101.869 2567.211 1109.405 2577.427 L 1120.567 2592.557 C 1130.647 2606.223 1134.232 2629.085 1129.494 2646.154 Z "
           fill="rgb(43,95,113)"
           vector-effect="non-scaling-stroke"
           stroke-width="9"
           stroke="rgb(255,208,12)"
           stroke-linejoin="round"
           stroke-linecap="round"
           stroke-miterlimit="3"
           id="path4"
           style="fill:#0649bc;fill-opacity:1" />
        <path
           d=" M 1150.751 2655.918 L 1164.974 2634.756 C 1179.753 2612.769 1210.244 2605.899 1233.024 2619.424 L 1235.974 2621.176 C 1246.889 2627.656 1261.869 2641.211 1269.405 2651.427 L 1280.567 2666.557 C 1291.706 2681.658 1294.913 2707.99 1287.723 2725.323 L 1265.441 2779.039 C 1254.022 2806.568 1225.483 2822.197 1201.751 2813.918 L 1201.751 2813.918 C 1178.018 2805.639 1168.036 2776.574 1179.474 2749.053 L 1190.751 2721.918"
           fill="rgb(43,95,113)"
           vector-effect="non-scaling-stroke"
           stroke-width="9"
           stroke="rgb(255,208,12)"
           stroke-linejoin="round"
           stroke-linecap="round"
           stroke-miterlimit="3"
           id="path5"
           style="fill:#0649bc;fill-opacity:1" />
        <path
           d=" M 1102.751 2632.585 L 1116.974 2611.422 C 1131.753 2589.435 1162.244 2582.565 1185.024 2596.091 L 1187.974 2597.842 C 1198.889 2604.323 1213.869 2617.878 1221.405 2628.093 L 1232.567 2643.224 C 1243.706 2658.325 1246.913 2684.657 1239.723 2701.99 L 1217.441 2755.706 C 1206.022 2783.235 1177.483 2798.863 1153.751 2790.585 L 1153.751 2790.585 C 1130.018 2782.306 1120.036 2753.241 1131.474 2725.719 L 1142.751 2698.585"
           fill="rgb(43,95,113)"
           vector-effect="non-scaling-stroke"
           stroke-width="9"
           stroke="rgb(255,208,12)"
           stroke-linejoin="round"
           stroke-linecap="round"
           stroke-miterlimit="3"
           id="path6"
           style="fill:#0649bc;fill-opacity:1" />
        <path
           d=" M 1055.417 2608.585 L 1069.641 2587.422 C 1084.419 2565.435 1114.911 2558.565 1137.69 2572.091 L 1140.641 2573.842 C 1151.556 2580.323 1166.535 2593.878 1174.071 2604.093 L 1185.233 2619.224 C 1196.373 2634.325 1199.58 2660.657 1192.39 2677.99 L 1164.744 2744.637 C 1156.285 2765.029 1133.019 2775.864 1112.822 2768.819 L 1112.822 2768.819 C 1085.555 2759.307 1072.703 2729.241 1084.141 2701.719 L 1095.417 2674.585"
           fill="rgb(43,95,113)"
           vector-effect="non-scaling-stroke"
           stroke-width="9"
           stroke="rgb(255,208,12)"
           stroke-linejoin="round"
           stroke-linecap="round"
           stroke-miterlimit="3"
           id="path7"
           style="fill:#0649bc;fill-opacity:1" />
        <path
           d=" M 1065.665 2542.238 L 1075.635 2547.766 C 1086.737 2553.921 1101.869 2567.211 1109.405 2577.427 L 1120.567 2592.557 C 1131.706 2607.658 1134.913 2633.99 1127.723 2651.323 L 1105.441 2705.039 C 1094.022 2732.568 1065.483 2748.197 1041.751 2739.918 L 1041.751 2739.918 C 1018.018 2731.639 1008.036 2702.574 1019.474 2675.053 L 1030.751 2647.918"
           fill="rgb(43,95,113)"
           vector-effect="non-scaling-stroke"
           stroke-width="9"
           stroke="rgb(255,208,12)"
           stroke-linejoin="round"
           stroke-linecap="round"
           stroke-miterlimit="3"
           id="path8"
           style="fill:#0649bc;fill-opacity:1" />
        <path
           d=" M 998.329 2603.129 L 1071.704 2590.529 C 1085.847 2588.101 1108.828 2587.997 1122.992 2590.298 Q 1128.107 2591.129 1174.213 2605.649 C 1193.165 2611.617 1207.111 2632.529 1205.337 2652.318 L 1204.654 2659.939 C 1202.88 2679.729 1185.418 2697.665 1165.682 2699.968 L 1054.261 2712.97 C 1048.779 2713.61 1040.692 2716.747 1036.213 2719.972 L 990.773 2752.685"
           fill="rgb(43,95,113)"
           vector-effect="non-scaling-stroke"
           stroke-width="9"
           stroke="rgb(255,208,12)"
           stroke-linejoin="round"
           stroke-linecap="round"
           stroke-miterlimit="3"
           id="path9"
           style="fill:#0649bc;fill-opacity:1" />
      </g>
    </g>
    <g
       id="g21">
      <g
         id="g14">
        <path
           d=" M 1421.057 2809.011 C 1415.285 2807.579 1411.208 2804.471 1408.755 2799.632 L 1406.692 2795.565 L 1406.692 2624.67 L 1406.692 2453.774 L 1408.273 2450.617 C 1410.304 2446.56 1413.828 2442.834 1417.35 2441.018 C 1419.96 2439.673 1422.082 2439.584 1451.55 2439.584 L 1482.967 2439.584 L 1485.892 2441.737 C 1490.07 2444.813 1492.661 2447.762 1494.215 2451.209 C 1495.481 2454.019 1495.58 2458.604 1495.777 2523.494 C 1496.014 2601.744 1496.417 2596.334 1490.353 2596.334 C 1487.003 2596.334 1484.351 2597.928 1484.905 2599.609 C 1485.625 2601.793 1488.984 2602.312 1502.317 2602.3 C 1524.908 2602.28 1532.148 2600.726 1538.296 2594.578 C 1545.453 2587.421 1544.978 2592.523 1545.425 2517.941 L 1545.817 2452.673 L 1548.309 2448.79 C 1549.813 2446.447 1552.392 2443.852 1554.811 2442.246 L 1558.821 2439.584 L 1590.3 2439.584 L 1621.778 2439.584 L 1625.423 2442.078 C 1630.367 2445.463 1633.689 2451.064 1634.324 2457.088 C 1634.592 2459.63 1634.675 2486.515 1634.509 2516.834 C 1634.243 2565.051 1634.043 2572.805 1632.913 2578.709 C 1630.343 2592.133 1626.621 2602.045 1620.152 2612.695 C 1618.181 2615.939 1617.442 2618.011 1617.442 2620.294 C 1617.442 2624.04 1618.059 2625.318 1622.713 2631.209 C 1629.606 2639.935 1634.935 2651.658 1637.601 2663.963 C 1640.319 2676.51 1640.803 2689.641 1640.553 2744.084 C 1640.286 2802.154 1640.597 2799.15 1634.288 2804.703 C 1628.855 2809.486 1628.267 2809.57 1598.156 2809.893 C 1575.099 2810.14 1570.283 2810.004 1566.281 2808.989 C 1560.223 2807.454 1556.052 2804.434 1553.692 2799.875 L 1551.817 2796.253 L 1551.399 2753.481 C 1551.134 2726.412 1550.689 2709.875 1550.186 2708.438 C 1546.934 2699.138 1541.636 2694.449 1532.093 2692.426 C 1529.706 2691.921 1519.916 2691.584 1507.584 2691.584 C 1489.916 2691.584 1486.885 2691.749 1485.871 2692.763 C 1483.487 2695.146 1485.23 2696.834 1490.075 2696.834 C 1496.399 2696.834 1496.053 2693.736 1495.754 2747.571 C 1495.558 2783.025 1495.258 2795.419 1494.543 2797.575 C 1493.2 2801.622 1489.097 2805.853 1484.498 2807.932 C 1480.612 2809.689 1480.249 2809.711 1452.817 2809.857 C 1431.859 2809.969 1424.086 2809.762 1421.057 2809.011 L 1421.057 2809.011 Z "
           fill="rgb(43,95,113)"
           id="path10"
           style="fill:#0649bc;fill-opacity:1" />
        <path
           d=" M 1667.892 2809.317 C 1658.247 2807.34 1652.692 2800.606 1652.692 2790.89 C 1652.692 2788.599 1653.191 2780.759 1653.802 2773.467 C 1654.412 2766.175 1655.428 2753.796 1656.06 2745.959 C 1656.691 2738.122 1657.532 2727.996 1657.927 2723.459 C 1658.323 2718.921 1658.997 2710.822 1659.425 2705.459 C 1659.853 2700.097 1660.712 2689.634 1661.334 2682.209 C 1662.932 2663.145 1663.636 2654.487 1666.182 2622.584 C 1667.417 2607.115 1668.771 2590.578 1669.19 2585.834 C 1669.609 2581.09 1670.455 2570.796 1671.069 2562.959 C 1671.683 2555.121 1672.511 2544.997 1672.909 2540.459 C 1673.306 2535.921 1673.826 2529.678 1674.064 2526.584 C 1674.302 2523.49 1674.813 2517.415 1675.2 2513.084 C 1675.588 2508.753 1676.438 2498.29 1677.09 2489.834 C 1677.741 2481.378 1678.753 2472.021 1679.338 2469.041 C 1680.715 2462.021 1684.121 2455.362 1688.941 2450.266 C 1693.342 2445.612 1697.061 2443.237 1703.307 2441.088 C 1707.543 2439.63 1709.582 2439.584 1769.732 2439.584 L 1831.787 2439.584 L 1837.185 2441.781 C 1844.134 2444.609 1847.989 2447.312 1851.624 2451.907 C 1859.062 2461.309 1859.606 2463.914 1863.064 2506.709 C 1864.992 2530.573 1866.048 2543.15 1867.946 2564.834 C 1868.607 2572.384 1869.541 2583.587 1872.446 2618.834 C 1872.837 2623.578 1873.676 2633.534 1874.312 2640.959 C 1875.528 2655.169 1876.274 2664.058 1878.057 2685.584 C 1879.565 2703.786 1880.467 2714.501 1881.815 2730.209 C 1882.453 2737.634 1883.457 2749.784 1884.047 2757.209 C 1884.636 2764.634 1885.486 2775.234 1885.934 2780.765 C 1887.128 2795.498 1885.925 2800.766 1880.31 2805.395 C 1875.406 2809.437 1874.293 2809.577 1844.692 2809.899 C 1811.532 2810.259 1807.224 2809.682 1802.149 2804.207 C 1798.579 2800.355 1797.884 2797.474 1796.687 2781.584 C 1796.267 2776.015 1795.596 2768.084 1795.196 2763.959 C 1794.795 2759.834 1793.95 2749.878 1793.317 2741.834 C 1792.684 2733.79 1791.621 2721.042 1790.954 2713.504 C 1789.809 2700.554 1789.814 2699.719 1791.046 2698.358 C 1791.762 2697.566 1793.376 2696.814 1794.632 2696.688 C 1797.478 2696.403 1798.896 2694.462 1797.494 2692.772 C 1796.638 2691.74 1793.771 2691.584 1775.701 2691.584 C 1755.603 2691.584 1754.825 2691.639 1752.862 2693.182 C 1751.744 2694.062 1750.527 2695.577 1750.157 2696.551 C 1749.787 2697.524 1748.797 2706.677 1747.957 2716.89 C 1747.117 2727.103 1745.929 2741.365 1745.317 2748.584 C 1744.704 2755.803 1743.848 2766.097 1743.415 2771.459 C 1741.207 2798.757 1740.716 2800.949 1735.872 2805.095 C 1730.731 2809.495 1730.006 2809.588 1699.192 2809.787 C 1683.723 2809.887 1669.638 2809.675 1667.892 2809.317 L 1667.892 2809.317 Z  M 1786.537 2601.595 C 1790.629 2600.04 1789.247 2596.334 1784.575 2596.334 C 1783.349 2596.334 1782.219 2595.795 1781.824 2595.022 C 1781.455 2594.3 1780.75 2588.984 1780.257 2583.209 C 1777.958 2556.251 1777.231 2547.494 1776.802 2541.584 C 1776.193 2533.194 1775.316 2530.566 1772.667 2529.196 C 1769.774 2527.7 1768.01 2527.796 1765.753 2529.572 C 1763.283 2531.515 1763.198 2531.943 1761.801 2549.488 C 1761.146 2557.722 1760.288 2568.34 1759.896 2573.084 C 1759.503 2577.828 1758.967 2585.594 1758.706 2590.342 C 1758.178 2599.942 1758.388 2600.476 1763.134 2601.603 C 1766.731 2602.457 1784.287 2602.451 1786.537 2601.595 L 1786.537 2601.595 Z "
           fill-rule="evenodd"
           fill="rgb(43,95,113)"
           id="path11"
           style="fill:#0649bc;fill-opacity:1" />
        <path
           d=" M 1913.251 2808.981 C 1905.744 2806.908 1902.143 2803.695 1899.891 2797.063 C 1898.807 2793.87 1898.693 2778.171 1898.705 2633.245 C 1898.716 2496.215 1898.876 2472.215 1899.804 2467.833 C 1902.682 2454.251 1910.366 2445.712 1923.902 2441.055 C 1927.96 2439.659 1930.426 2439.584 1972.567 2439.584 C 2015.149 2439.584 2017.138 2439.646 2021.387 2441.1 C 2026.877 2442.978 2032.69 2446.899 2035.892 2450.884 C 2039.937 2455.917 2043.101 2463.928 2047.424 2480.084 C 2049.688 2488.54 2053.791 2503.897 2056.544 2514.209 C 2063.028 2538.502 2063.68 2540.402 2065.639 2540.683 C 2068.363 2541.074 2069.255 2539.103 2068.198 2535.024 C 2066.56 2528.697 2066.359 2515.601 2067.768 2507 C 2069.037 2499.253 2075.404 2472.62 2077.699 2465.459 C 2081.873 2452.436 2088.698 2444.996 2100.057 2441.088 C 2104.237 2439.649 2106.346 2439.584 2148.59 2439.584 C 2191.226 2439.584 2192.92 2439.638 2197.566 2441.139 C 2204.59 2443.408 2210.82 2447.735 2214.75 2453.074 C 2219.205 2459.126 2221.081 2464.448 2221.988 2473.608 C 2222.473 2478.506 2222.662 2536.958 2222.519 2637.959 C 2222.34 2764.354 2222.108 2795.264 2221.32 2797.575 C 2219.933 2801.641 2215.829 2805.861 2211.248 2807.932 C 2207.331 2809.703 2207.212 2809.709 2178.442 2809.709 C 2156.232 2809.709 2148.752 2809.472 2146.036 2808.683 C 2141.722 2807.429 2136.956 2803.481 2134.729 2799.316 L 2133.067 2796.209 L 2132.692 2708.762 C 2132.381 2636.154 2132.142 2621.104 2131.288 2620.074 C 2130.034 2618.563 2125.705 2618.438 2124.51 2619.877 C 2124.034 2620.451 2115.913 2648.846 2106.464 2682.978 C 2093.546 2729.641 2088.756 2745.888 2087.156 2748.477 C 2085.887 2750.528 2083.544 2752.837 2081.357 2754.189 L 2077.687 2756.459 L 2060.694 2756.459 L 2043.702 2756.459 L 2040.033 2754.191 C 2038.015 2752.944 2035.377 2750.52 2034.172 2748.805 C 2031.891 2745.56 2031.62 2744.631 2007.023 2655.682 C 2001.733 2636.555 1996.94 2620.439 1996.37 2619.869 C 1994.88 2618.379 1990.658 2618.576 1989.183 2620.206 C 1988.044 2621.465 1987.942 2628.525 1987.942 2706.419 C 1987.942 2766.701 1987.697 2792.411 1987.094 2795.235 C 1985.851 2801.055 1982.784 2805.06 1977.632 2807.59 L 1973.317 2809.709 L 1945.192 2809.872 C 1922.951 2810 1916.269 2809.814 1913.251 2808.981 L 1913.251 2808.981 Z "
           fill="rgb(43,95,113)"
           id="path12"
           style="fill:#0649bc;fill-opacity:1" />
        <path
           d=" M 2248.397 2809.031 C 2242.625 2807.597 2238.957 2804.849 2236.659 2800.237 C 2234.416 2795.736 2234.134 2790.011 2235.424 2775.209 C 2235.82 2770.672 2236.502 2762.572 2236.941 2757.209 C 2237.38 2751.847 2238.244 2741.384 2238.861 2733.959 C 2239.479 2726.534 2240.301 2716.409 2240.688 2711.459 C 2241.51 2700.925 2244.107 2669.483 2245.178 2657.084 C 2245.588 2652.34 2246.43 2642.215 2247.049 2634.584 C 2247.669 2626.953 2248.862 2612.441 2249.702 2602.334 C 2250.541 2592.228 2251.722 2577.715 2252.326 2570.084 C 2252.93 2562.453 2253.774 2551.99 2254.202 2546.834 C 2254.63 2541.678 2255.49 2531.215 2256.113 2523.584 C 2256.736 2515.953 2257.551 2505.997 2257.924 2501.459 C 2258.297 2496.922 2258.982 2488.484 2259.446 2482.709 C 2261.368 2458.798 2267.587 2448.236 2283.575 2441.73 L 2288.848 2439.584 L 2351.253 2439.584 L 2413.658 2439.584 L 2418.324 2441.413 C 2424.765 2443.937 2427.321 2445.643 2431.874 2450.458 C 2436.813 2455.679 2440.51 2463.515 2441.607 2471.084 C 2442.387 2476.472 2443.313 2486.79 2445.81 2517.959 C 2446.438 2525.797 2447.279 2535.753 2447.679 2540.084 C 2448.079 2544.415 2448.925 2554.54 2449.558 2562.584 C 2450.191 2570.628 2451.214 2583.116 2451.832 2590.334 C 2452.449 2597.553 2453.301 2607.678 2453.724 2612.834 C 2454.148 2617.99 2454.827 2625.922 2455.232 2630.459 C 2455.637 2634.997 2456.3 2642.844 2456.705 2647.897 C 2457.626 2659.376 2458.588 2670.882 2460.077 2688.209 C 2460.715 2695.634 2461.556 2705.759 2461.947 2710.709 C 2462.338 2715.659 2463.18 2725.784 2463.818 2733.209 C 2464.456 2740.634 2465.299 2750.59 2465.692 2755.334 C 2466.085 2760.078 2466.911 2769.903 2467.527 2777.167 C 2469.319 2798.293 2467.701 2803.425 2457.808 2807.985 C 2454.163 2809.665 2453.378 2809.716 2427.067 2809.966 C 2391.582 2810.303 2387.016 2809.47 2382.273 2801.799 C 2379.985 2798.098 2379.522 2794.709 2376.845 2762.084 C 2375.462 2745.239 2374.458 2733.512 2373.441 2722.334 C 2373.047 2718.003 2372.501 2710.88 2372.229 2706.505 C 2371.683 2697.71 2371.718 2697.628 2376.417 2696.865 C 2378.762 2696.483 2379.067 2696.176 2379.067 2694.196 L 2379.067 2691.959 L 2358.442 2691.759 C 2344.1 2691.619 2337.178 2691.823 2335.719 2692.427 C 2332.047 2693.947 2331.377 2696.516 2329.885 2714.778 C 2329.125 2724.09 2328.158 2735.759 2327.736 2740.709 C 2327.314 2745.659 2326.454 2756.122 2325.826 2763.959 C 2322.709 2802.819 2322.469 2803.648 2313.058 2807.985 C 2309.383 2809.679 2308.812 2809.712 2280.817 2809.857 C 2259.534 2809.968 2251.324 2809.758 2248.397 2809.031 L 2248.397 2809.031 Z  M 2368.416 2601.642 C 2372.22 2600.195 2370.994 2596.334 2366.73 2596.334 C 2365.573 2596.334 2364.255 2595.887 2363.801 2595.341 C 2363.337 2594.782 2361.868 2580.997 2360.437 2563.782 C 2358.198 2536.837 2357.721 2532.98 2356.406 2531.213 C 2354.475 2528.619 2351.562 2527.577 2348.881 2528.519 C 2345.072 2529.859 2345.214 2528.997 2341.935 2570.834 C 2341.531 2575.991 2340.877 2584.09 2340.481 2588.834 C 2339.402 2601.758 2339.771 2602.056 2357.081 2602.235 C 2362.313 2602.29 2367.414 2602.023 2368.416 2601.642 L 2368.416 2601.642 Z "
           fill-rule="evenodd"
           fill="rgb(43,95,113)"
           id="path13"
           style="fill:#0649bc;fill-opacity:1" />
        <path
           d=" M 2566.942 2808.907 C 2561.56 2807.435 2558.05 2804.579 2555.505 2799.6 L 2553.442 2795.565 L 2553.442 2746.976 C 2553.442 2699.846 2553.485 2698.364 2554.881 2697.617 C 2555.672 2697.194 2557.318 2697.047 2558.539 2697.291 C 2562.618 2698.107 2565.695 2694.722 2562.947 2692.442 C 2562.4 2691.988 2558.265 2691.089 2553.759 2690.444 C 2542.694 2688.861 2537.067 2687.458 2529.067 2684.289 C 2506.128 2675.202 2491.116 2657.994 2484.396 2633.084 C 2481.096 2620.852 2481.214 2624.12 2480.918 2537.268 C 2480.721 2479.606 2480.881 2453.667 2481.446 2451.571 C 2482.388 2448.072 2485.81 2443.91 2489.833 2441.37 L 2492.662 2439.584 L 2525.217 2439.584 L 2557.773 2439.584 L 2561.42 2442.022 C 2564.141 2443.84 2565.638 2445.602 2567.317 2448.959 L 2569.567 2453.459 L 2569.942 2519.084 L 2570.317 2584.709 L 2572.425 2589.002 C 2576.717 2597.742 2584.415 2601.584 2597.635 2601.584 C 2605.879 2601.584 2610.939 2600.365 2615.508 2597.28 C 2619.528 2594.564 2621.455 2592.01 2623.438 2586.766 C 2625.053 2582.496 2625.07 2581.904 2625.442 2517.209 C 2625.816 2452.139 2625.822 2451.951 2627.436 2448.959 C 2629.32 2445.468 2632.324 2442.506 2635.717 2440.795 C 2637.814 2439.737 2642.155 2439.584 2670.067 2439.584 C 2697.98 2439.584 2702.32 2439.737 2704.417 2440.795 C 2707.791 2442.497 2710.836 2445.486 2712.511 2448.742 C 2713.894 2451.431 2713.942 2454.324 2713.942 2534.508 C 2713.942 2616 2713.914 2617.635 2712.355 2625.475 C 2708.675 2643.984 2701.392 2658.422 2690.47 2668.859 C 2681.771 2677.173 2671.561 2682.933 2659.567 2686.295 C 2648.837 2689.302 2646.269 2690.382 2644.64 2692.576 C 2643.089 2694.663 2643.062 2695.392 2642.692 2744.701 L 2642.317 2794.709 L 2640.575 2798.559 C 2638.443 2803.271 2635.968 2805.724 2631.067 2807.981 C 2627.387 2809.677 2626.796 2809.712 2599.192 2809.872 C 2576.108 2810.005 2570.328 2809.833 2566.942 2808.907 L 2566.942 2808.907 Z "
           fill="rgb(43,95,113)"
           id="path14"
           style="fill:#0649bc;fill-opacity:1" />
      </g>
      <g
         id="g20">
        <path
           d=" M -225.956 2809.149 C -252.51 2807.125 -273.359 2797.07 -286.605 2779.896 C -298.122 2764.965 -304.058 2744.107 -304.058 2718.567 C -304.058 2706.262 -303.969 2705.478 -302.126 2701.583 C -301.063 2699.337 -299.054 2696.629 -297.66 2695.566 C -292.63 2691.729 -290.498 2691.509 -258.308 2691.509 C -219.827 2691.509 -219.614 2691.566 -213.901 2703.371 C -208.46 2714.611 -203.321 2718.546 -192.376 2719.853 C -186.435 2720.563 -181.205 2720.063 -174.658 2718.16 C -169.231 2716.582 -163.378 2710.992 -161.281 2705.384 C -159.187 2699.786 -158.726 2686.899 -160.435 2681.754 C -162.213 2676.399 -165.954 2672.437 -171.019 2670.542 C -174.985 2669.058 -176.631 2669.009 -223.274 2668.997 C -267.53 2668.985 -271.858 2668.872 -276.683 2667.609 C -285.359 2665.338 -289.38 2663.219 -293.795 2658.59 C -298.602 2653.55 -300.795 2649.543 -302.663 2642.384 C -303.934 2637.51 -304.033 2632.751 -304.045 2575.883 L -304.058 2514.631 L -302.197 2505.28 C -298.349 2485.94 -292.032 2473.258 -280.506 2461.732 C -271.157 2452.383 -259.646 2446.147 -244.058 2441.986 L -236.183 2439.884 L -190.058 2439.884 L -143.933 2439.884 L -136.433 2441.902 C -121.101 2446.025 -111.109 2451.286 -101.576 2460.254 C -88.998 2472.086 -82.27 2485.103 -78.183 2505.509 C -76.521 2513.811 -76.455 2515.527 -76.444 2551.259 L -76.433 2588.384 L -78.195 2591.962 C -80.043 2595.715 -84.111 2599.065 -88.732 2600.64 C -92.834 2602.039 -149.182 2601.84 -153.226 2600.413 C -157.813 2598.795 -161.215 2595.875 -163.137 2591.906 C -164.738 2588.601 -164.874 2587.114 -165.354 2567.759 C -165.636 2556.416 -166.202 2546.112 -166.612 2544.863 C -168.949 2537.747 -173.052 2532.932 -179.183 2530.11 C -182.317 2528.668 -184.164 2528.388 -190.433 2528.405 C -200.959 2528.434 -206.314 2530.945 -210.782 2537.947 C -214.486 2543.752 -214.808 2547.013 -214.808 2578.766 C -214.808 2611.734 -214.635 2613.079 -209.734 2618.172 C -204.197 2623.927 -207.605 2623.586 -151.058 2624.052 C -103.033 2624.448 -100.178 2624.547 -95.466 2625.987 C -82.801 2629.858 -75.284 2637.606 -71.727 2650.458 C -70.578 2654.61 -70.433 2659.51 -70.433 2694.134 C -70.433 2735.828 -70.695 2739.773 -74.291 2752.188 C -79.38 2769.76 -88.402 2783.597 -100.653 2792.62 C -114.512 2802.829 -128.491 2807.505 -150.27 2809.217 C -162.035 2810.141 -213.535 2810.095 -225.956 2809.149 Z "
           fill="rgb(255,208,12)"
           id="path15" />
        <path
           d=" M -43.433 2808.955 C -50.136 2807.299 -53.413 2804.89 -56.283 2799.509 C -57.441 2797.338 -57.67 2795.33 -57.609 2787.884 C -57.568 2782.934 -57.148 2774.834 -56.676 2769.884 C -56.204 2764.934 -55.303 2754.472 -54.674 2746.634 C -53.159 2727.742 -51.696 2709.988 -49.081 2678.759 C -48.684 2674.016 -48.008 2665.747 -47.578 2660.384 C -47.148 2655.022 -46.298 2644.728 -45.688 2637.509 C -45.077 2630.291 -44.07 2617.972 -43.448 2610.134 C -42.826 2602.297 -41.977 2592.003 -41.561 2587.259 C -41.145 2582.516 -40.296 2572.053 -39.673 2564.009 C -39.051 2555.966 -38.206 2545.503 -37.795 2540.759 C -37.384 2536.016 -36.537 2525.722 -35.914 2517.884 C -31.841 2466.73 -31.949 2467.532 -28.057 2459.384 C -23.596 2450.042 -17.25 2444.387 -7.443 2441.013 C -3.207 2439.556 -1.168 2439.509 58.942 2439.509 C 119.049 2439.509 121.092 2439.556 125.327 2441.013 C 134.651 2444.221 141.439 2450.381 145.571 2459.384 C 148.59 2465.963 149.374 2470.17 150.81 2487.509 C 152.869 2512.35 153.511 2519.948 154.58 2532.134 C 155.159 2538.734 156.159 2550.884 156.803 2559.134 C 157.447 2567.384 158.298 2577.678 158.694 2582.009 C 159.09 2586.341 159.78 2594.441 160.226 2600.009 C 160.672 2605.578 161.333 2613.678 161.694 2618.009 C 162.055 2622.341 163.041 2634.322 163.884 2644.634 C 164.727 2654.947 165.749 2666.928 166.154 2671.259 C 166.559 2675.591 167.084 2681.666 167.321 2684.759 C 167.559 2687.853 168.069 2694.097 168.456 2698.634 C 168.844 2703.172 169.504 2710.934 169.924 2715.884 C 170.344 2720.834 171.193 2730.791 171.81 2738.009 C 175.205 2777.713 176.055 2789.757 175.706 2793.226 C 174.871 2801.542 169.992 2806.945 161.596 2808.855 C 157.571 2809.771 151.307 2810.009 131.317 2810.009 C 102.448 2810.009 97.627 2809.412 92.885 2805.249 C 87.91 2800.881 87.281 2798.142 85.196 2771.772 C 84.212 2759.337 81.68 2729.38 80.263 2713.4 C 79.118 2700.507 79.122 2699.58 80.321 2698.255 C 81.024 2697.478 82.627 2696.74 83.882 2696.614 C 86.728 2696.328 88.147 2694.387 86.744 2692.697 C 85.888 2691.666 83.021 2691.509 64.951 2691.509 C 38.03 2691.509 39.359 2690.707 37.981 2707.788 C 37.556 2713.066 36.872 2721.266 36.463 2726.009 C 36.054 2730.753 35.368 2739.022 34.939 2744.384 C 31.413 2788.473 30.628 2796.112 29.293 2799.307 C 27.062 2804.648 22.948 2807.608 15.593 2809.167 C 9.942 2810.365 -38.432 2810.191 -43.433 2808.955 Z  M 77.744 2600.321 C 79.147 2598.632 77.728 2596.691 74.882 2596.405 C 70.826 2595.998 70.512 2594.967 69.145 2577.509 C 67.207 2552.775 65.668 2535.318 65.255 2533.382 C 64.216 2528.511 57.81 2526.289 54.628 2529.697 C 52.24 2532.255 52.488 2530.154 48.813 2579.009 C 47.393 2597.894 47.399 2598.216 49.192 2600.009 C 50.577 2601.394 51.692 2601.509 63.725 2601.509 C 74.702 2601.509 76.914 2601.322 77.744 2600.321 Z "
           fill-rule="evenodd"
           fill="rgb(255,208,12)"
           id="path16" />
        <path
           d=" M 202.253 2808.818 C 195.325 2806.955 191.907 2804.08 189.401 2798.009 C 188.467 2795.747 188.317 2771.669 188.317 2623.634 L 188.317 2451.884 L 189.936 2448.884 C 191.82 2445.394 194.824 2442.431 198.217 2440.72 C 200.316 2439.662 204.657 2439.51 232.717 2439.516 L 264.817 2439.522 L 268.594 2441.688 C 271.405 2443.301 272.938 2444.88 274.594 2447.869 L 276.817 2451.883 L 277.015 2581.919 C 277.161 2678.164 276.992 2712.221 276.361 2712.981 C 275.892 2713.546 274.39 2714.008 273.024 2714.008 C 268.943 2714.008 266.692 2715.208 266.692 2717.383 C 266.692 2718.746 267.245 2719.505 268.616 2720.027 C 269.79 2720.473 288.446 2720.758 316.482 2720.758 C 368.06 2720.758 367.179 2720.674 372.436 2726.091 C 377.579 2731.391 377.788 2733.046 377.538 2766.579 L 377.317 2796.133 L 375.153 2800.038 C 372.577 2804.687 368.996 2807.25 362.849 2808.842 C 356.308 2810.537 208.565 2810.514 202.253 2808.817 L 202.253 2808.818 Z "
           fill="rgb(255,208,12)"
           id="path17" />
        <path
           d=" M 403.192 2808.939 C 396.15 2806.984 393.113 2804.498 390.291 2798.375 L 388.567 2794.634 L 388.348 2628.509 C 388.201 2516.329 388.383 2460.457 388.911 2456.45 C 389.884 2449.063 392.278 2444.715 397.03 2441.701 L 400.486 2439.509 L 433.901 2439.526 C 464.873 2439.541 467.542 2439.645 470.393 2440.94 C 474.13 2442.637 478.025 2446.446 480.137 2450.469 C 482.031 2454.078 483.371 2458.837 509.68 2555.385 C 513.501 2569.41 519.598 2591.685 523.229 2604.885 C 526.859 2618.085 530.391 2631.079 531.078 2633.76 C 532.542 2639.478 533.246 2640.51 535.682 2640.51 C 538.16 2640.51 538.583 2638.87 537.495 2633.481 C 533.854 2615.435 534.069 2621.665 534.068 2533.99 L 534.067 2451.846 L 535.986 2448.115 C 537.216 2445.725 539.102 2443.577 541.236 2442.135 L 544.567 2439.885 L 577.365 2439.675 C 608.832 2439.473 610.281 2439.525 613.083 2440.955 C 616.397 2442.645 619.607 2446.153 621.368 2450.01 C 622.456 2452.391 622.567 2468.548 622.567 2623.635 C 622.567 2787.397 622.509 2794.785 621.198 2798.184 C 619.616 2802.284 614.751 2806.952 610.437 2808.509 C 606.594 2809.897 555.024 2810.528 548.317 2809.27 C 535.822 2806.925 531.652 2802.292 527.046 2785.635 C 526.589 2783.985 525.409 2779.766 524.423 2776.26 C 523.437 2772.754 522.041 2767.691 521.321 2765.01 C 520.602 2762.329 519.576 2758.616 519.041 2756.76 C 518.506 2754.904 515.971 2745.791 513.407 2736.51 C 510.843 2727.229 507.101 2713.729 505.091 2706.51 C 503.08 2699.291 500.938 2691.529 500.329 2689.26 C 499.026 2684.408 495.953 2673.342 493.56 2664.885 C 492.626 2661.585 490.991 2655.679 489.927 2651.76 C 478.58 2609.976 477.517 2606.86 474.901 2607.732 C 472.832 2608.422 472.693 2610.524 474.265 2617.381 C 477.759 2632.617 477.817 2634.242 477.817 2716.635 L 477.817 2794.635 L 475.567 2799.135 C 472.891 2804.488 469.338 2807.206 462.847 2808.866 C 456.982 2810.367 408.55 2810.426 403.192 2808.939 L 403.192 2808.939 Z "
           fill="rgb(255,208,12)"
           id="path18" />
        <path
           d=" M 712.192 2809.21 C 673.827 2805.94 650.307 2789.009 639.177 2756.653 C 633.436 2739.962 633.302 2736.566 633.627 2615.384 C 633.903 2512.436 633.913 2511.845 635.534 2504.43 C 638.533 2490.716 642.673 2480.556 649.039 2471.284 C 652.338 2466.48 660.256 2458.506 665.893 2454.314 C 670.612 2450.804 680.365 2446.098 687.817 2443.736 C 701.007 2439.556 701.719 2439.508 750.598 2439.521 C 792.463 2439.533 796.329 2439.641 802.713 2440.989 C 836.118 2448.04 856.725 2467.613 864.324 2499.509 C 866.884 2510.252 867.442 2515.608 867.442 2529.422 C 867.442 2543.228 867.368 2543.957 865.593 2547.458 C 863.363 2551.858 859.385 2555.302 855.175 2556.476 C 852.984 2557.087 842.659 2557.275 820.192 2557.113 C 788.829 2556.888 788.267 2556.857 785.173 2555.204 C 781.242 2553.103 778.869 2550.009 776.359 2543.716 C 775.281 2541.011 773.361 2537.54 772.094 2536.003 C 765.188 2527.625 746.657 2525.37 734.602 2531.441 C 728.939 2534.293 725.142 2539.782 723.486 2547.509 C 722.832 2550.562 722.662 2571.034 722.834 2626.259 C 723.097 2710.45 722.756 2705.607 728.896 2712.269 C 733.987 2717.792 740.39 2720.127 750.442 2720.127 C 763.407 2720.127 771.751 2715.575 776.093 2706.134 C 777.758 2702.513 777.825 2701.573 778.045 2678.774 C 778.303 2652.012 778.193 2652.509 783.88 2652.509 C 788.643 2652.509 791.343 2649.079 787.991 2647.286 C 787.14 2646.83 780.758 2646.509 772.542 2646.509 C 750.955 2646.509 750.942 2646.497 750.572 2625.373 C 750.35 2612.697 750.469 2611.04 751.819 2607.989 C 754.635 2601.621 752.305 2601.914 802.079 2601.668 C 827.688 2601.542 848.028 2601.755 851.113 2602.183 C 858.055 2603.145 862.477 2605.864 865.262 2610.884 L 867.342 2614.634 L 867.392 2674.811 C 867.422 2711.242 867.155 2736.25 866.714 2738.186 C 866.313 2739.945 865.435 2743.916 864.763 2747.009 C 861.067 2764.021 853.888 2777.202 842.452 2787.973 C 830.681 2799.06 817.539 2804.967 797.317 2808.259 C 789.239 2809.574 724.892 2810.293 712.192 2809.21 Z "
           fill="rgb(255,208,12)"
           id="path19" />
        <path
           d=" M 302.647 2713.006 C 294.95 2710.885 290.658 2706.164 289.187 2698.205 C 288.673 2695.421 288.482 2653.741 288.616 2573.33 C 288.807 2458.884 288.887 2452.479 290.169 2449.634 C 291.87 2445.862 294.766 2442.784 298.35 2440.941 C 300.96 2439.598 303.115 2439.509 333.074 2439.509 C 360.98 2439.509 365.32 2439.663 367.417 2440.72 C 370.81 2442.431 373.815 2445.394 375.698 2448.884 L 377.317 2451.884 L 377.548 2573.759 C 377.712 2660.221 377.54 2696.747 376.956 2699.465 C 375.795 2704.865 372.5 2709.002 367.342 2711.535 L 363.067 2713.634 L 334.567 2713.792 C 313.567 2713.908 305.167 2713.701 302.647 2713.006 L 302.647 2713.006 Z "
           fill="rgb(255,208,12)"
           id="path20" />
      </g>
    </g>
  </g>
</svg>
