<?xml version="1.0" encoding="UTF-8" standalone="no"?>
<!-- Generator: Gravit.io -->

<svg
   style="isolation:isolate"
   viewBox="924.918 2350.028 433.534 554.056"
   width="433.534pt"
   height="554.056pt"
   version="1.1"
   id="svg10"
   sodipodi:docname="logo - yellow blue.svg"
   inkscape:version="1.3.2 (091e20e, 2023-11-25, custom)"
   xmlns:inkscape="http://www.inkscape.org/namespaces/inkscape"
   xmlns:sodipodi="http://sodipodi.sourceforge.net/DTD/sodipodi-0.dtd"
   xmlns="http://www.w3.org/2000/svg"
   xmlns:svg="http://www.w3.org/2000/svg">
  <defs
     id="defs10" />
  <sodipodi:namedview
     id="namedview10"
     pagecolor="#ffffff"
     bordercolor="#000000"
     borderopacity="0.25"
     inkscape:showpageshadow="2"
     inkscape:pageopacity="0.0"
     inkscape:pagecheckerboard="0"
     inkscape:deskcolor="#d1d1d1"
     inkscape:document-units="pt"
     inkscape:zoom="1.0193012"
     inkscape:cx="288.92342"
     inkscape:cy="369.37069"
     inkscape:window-width="1920"
     inkscape:window-height="982"
     inkscape:window-x="-10"
     inkscape:window-y="-10"
     inkscape:window-maximized="1"
     inkscape:current-layer="g10" />
  <g
     id="g10">
    <path
       d=" M 1129.494 2646.154 L 1261.881 2717.514 C 1272.569 2723.275 1277.572 2737.1 1273.046 2748.367 Q 1226.918 2863.188 1226.918 2863.188 C 1207.276 2897.374 1139.995 2919.629 1037.453 2873.197 C 934.911 2826.765 922.32 2783.265 932.163 2739.092 L 974.413 2624.438 C 980.711 2607.348 993.666 2580.937 1003.326 2565.497 L 1005.909 2561.368 C 1020.171 2539.043 1050.244 2531.899 1073.024 2545.424 L 1075.974 2547.176 C 1086.889 2553.657 1101.869 2567.211 1109.405 2577.427 L 1120.567 2592.557 C 1130.647 2606.223 1134.232 2629.085 1129.494 2646.154 Z "
       fill="rgb(255,208,12)"
       vector-effect="non-scaling-stroke"
       stroke-width="9"
       stroke="rgb(255,208,12)"
       stroke-linejoin="round"
       stroke-linecap="round"
       stroke-miterlimit="3"
       id="path1" />
    <path
       d=" M 1031.995 2351.129 C 964.995 2361.129 976.995 2450.129 1002.208 2628.038 C 965.995 2759.129 982.995 2814.129 1123.995 2843.129 C 1264.995 2872.129 1321.069 2853.197 1319.253 2776.902 C 1386.995 2705.129 1362.821 2604.681 1278.344 2578.038 C 1324.995 2506.129 1383.995 2444.129 1323.995 2403.129 C 1263.995 2362.129 1226.995 2447.129 1145.433 2530.816 L 1138.87 2529.504 C 1120.995 2399.129 1098.995 2341.129 1031.995 2351.129 Z "
       fill="rgb(43,95,113)"
       id="path2"
       style="fill:#0649bc;fill-opacity:1" />
    <clipPath
       id="_clipPath_x2sdhbXUw45V7ZUhsAxwx0ljpSmIe63P">
      <path
         d=" M 1031.995 2351.129 C 964.995 2361.129 976.995 2450.129 1002.208 2628.038 C 965.995 2759.129 982.995 2814.129 1123.995 2843.129 C 1264.995 2872.129 1321.069 2853.197 1319.253 2776.902 C 1386.995 2705.129 1362.821 2604.681 1278.344 2578.038 C 1324.995 2506.129 1383.995 2444.129 1323.995 2403.129 C 1263.995 2362.129 1226.995 2447.129 1145.433 2530.816 L 1138.87 2529.504 C 1120.995 2399.129 1098.995 2341.129 1031.995 2351.129 Z "
         fill="rgb(43,95,113)"
         id="path3" />
    </clipPath>
    <g
       clip-path="url(#_clipPath_x2sdhbXUw45V7ZUhsAxwx0ljpSmIe63P)"
       id="g9">
      <path
         d=" M 1129.494 2646.154 L 1261.881 2717.514 C 1272.569 2723.275 1277.572 2737.1 1273.046 2748.367 Q 1226.918 2863.188 1226.918 2863.188 C 1207.276 2897.374 1156.478 2913.489 1113.552 2899.152 C 1097.804 2893.893 1061.659 2881.593 1032.095 2871.342 C 1009.371 2863.462 990.536 2856.793 987.841 2855.461 C 947.268 2835.409 922.32 2783.265 932.163 2739.092 L 974.413 2624.438 C 980.711 2607.348 993.666 2580.937 1003.326 2565.497 L 1005.909 2561.368 C 1020.171 2539.043 1050.244 2531.899 1073.024 2545.424 L 1075.974 2547.176 C 1086.889 2553.657 1101.869 2567.211 1109.405 2577.427 L 1120.567 2592.557 C 1130.647 2606.223 1134.232 2629.085 1129.494 2646.154 Z "
         fill="rgb(43,95,113)"
         vector-effect="non-scaling-stroke"
         stroke-width="9"
         stroke="rgb(255,208,12)"
         stroke-linejoin="round"
         stroke-linecap="round"
         stroke-miterlimit="3"
         id="path4"
         style="fill:#0649bc;fill-opacity:1" />
      <path
         d=" M 1150.751 2655.918 L 1164.974 2634.756 C 1179.753 2612.769 1210.244 2605.899 1233.024 2619.424 L 1235.974 2621.176 C 1246.889 2627.656 1261.869 2641.211 1269.405 2651.427 L 1280.567 2666.557 C 1291.706 2681.658 1294.913 2707.99 1287.723 2725.323 L 1265.441 2779.039 C 1254.022 2806.568 1225.483 2822.197 1201.751 2813.918 L 1201.751 2813.918 C 1178.018 2805.639 1168.036 2776.574 1179.474 2749.053 L 1190.751 2721.918"
         fill="rgb(43,95,113)"
         vector-effect="non-scaling-stroke"
         stroke-width="9"
         stroke="rgb(255,208,12)"
         stroke-linejoin="round"
         stroke-linecap="round"
         stroke-miterlimit="3"
         id="path5"
         style="fill:#0649bc;fill-opacity:1" />
      <path
         d=" M 1102.751 2632.585 L 1116.974 2611.422 C 1131.753 2589.435 1162.244 2582.565 1185.024 2596.091 L 1187.974 2597.842 C 1198.889 2604.323 1213.869 2617.878 1221.405 2628.093 L 1232.567 2643.224 C 1243.706 2658.325 1246.913 2684.657 1239.723 2701.99 L 1217.441 2755.706 C 1206.022 2783.235 1177.483 2798.863 1153.751 2790.585 L 1153.751 2790.585 C 1130.018 2782.306 1120.036 2753.241 1131.474 2725.719 L 1142.751 2698.585"
         fill="rgb(43,95,113)"
         vector-effect="non-scaling-stroke"
         stroke-width="9"
         stroke="rgb(255,208,12)"
         stroke-linejoin="round"
         stroke-linecap="round"
         stroke-miterlimit="3"
         id="path6"
         style="fill:#0649bc;fill-opacity:1" />
      <path
         d=" M 1055.417 2608.585 L 1069.641 2587.422 C 1084.419 2565.435 1114.911 2558.565 1137.69 2572.091 L 1140.641 2573.842 C 1151.556 2580.323 1166.535 2593.878 1174.071 2604.093 L 1185.233 2619.224 C 1196.373 2634.325 1199.58 2660.657 1192.39 2677.99 L 1164.744 2744.637 C 1156.285 2765.029 1133.019 2775.864 1112.822 2768.819 L 1112.822 2768.819 C 1085.555 2759.307 1072.703 2729.241 1084.141 2701.719 L 1095.417 2674.585"
         fill="rgb(43,95,113)"
         vector-effect="non-scaling-stroke"
         stroke-width="9"
         stroke="rgb(255,208,12)"
         stroke-linejoin="round"
         stroke-linecap="round"
         stroke-miterlimit="3"
         id="path7"
         style="fill:#0649bc;fill-opacity:1" />
      <path
         d=" M 1065.665 2542.238 L 1075.635 2547.766 C 1086.737 2553.921 1101.869 2567.211 1109.405 2577.427 L 1120.567 2592.557 C 1131.706 2607.658 1134.913 2633.99 1127.723 2651.323 L 1105.441 2705.039 C 1094.022 2732.568 1065.483 2748.197 1041.751 2739.918 L 1041.751 2739.918 C 1018.018 2731.639 1008.036 2702.574 1019.474 2675.053 L 1030.751 2647.918"
         fill="rgb(43,95,113)"
         vector-effect="non-scaling-stroke"
         stroke-width="9"
         stroke="rgb(255,208,12)"
         stroke-linejoin="round"
         stroke-linecap="round"
         stroke-miterlimit="3"
         id="path8"
         style="fill:#0649bc;fill-opacity:1" />
      <path
         d=" M 998.329 2603.129 L 1071.704 2590.529 C 1085.847 2588.101 1108.828 2587.997 1122.992 2590.298 Q 1128.107 2591.129 1174.213 2605.649 C 1193.165 2611.617 1207.111 2632.529 1205.337 2652.318 L 1204.654 2659.939 C 1202.88 2679.729 1185.418 2697.665 1165.682 2699.968 L 1054.261 2712.97 C 1048.779 2713.61 1040.692 2716.747 1036.213 2719.972 L 990.773 2752.685"
         fill="rgb(43,95,113)"
         vector-effect="non-scaling-stroke"
         stroke-width="9"
         stroke="rgb(255,208,12)"
         stroke-linejoin="round"
         stroke-linecap="round"
         stroke-miterlimit="3"
         id="path9"
         style="fill:#0649bc;fill-opacity:1" />
    </g>
  </g>
</svg>
